<svg height="496pt" viewBox="0 0 496 496" width="496pt" xmlns="http://www.w3.org/2000/svg"><path d="m120 488h368v-480h-368zm0 0" fill="#5cd6b3"/><path d="m200 8h208v80h-208zm0 0" fill="#fcd770"/><path d="m200 408h208v80h-208zm0 0" fill="#fcd770"/><path d="m264 368c0-74.992188-61.007812-136-136-136-2.703125 0-5.335938.246094-8 .40625v175.59375h137.929688c3.902343-12.65625 6.070312-26.070312 6.070312-40zm0 0" fill="#37bc9b"/><path d="m257.929688 408h-137.929688v80h71.863281c31.375-16.769531 55.402344-45.472656 66.066407-80zm0 0" fill="#ffc729"/><path d="m248 456h112v32h-112zm0 0" fill="#37bc9b"/><path d="m248 8h112v32h-112zm0 0" fill="#37bc9b"/><path d="m248 368c0 66.273438-53.726562 120-120 120s-120-53.726562-120-120 53.726562-120 120-120 120 53.726562 120 120zm0 0" fill="#e6e9ed"/><g fill="#656d78"><path d="m152 400h-48l-8-40 32-24 32 24zm0 0"/><path d="m128 248c-14.273438 0-27.902344 2.625-40.601562 7.191406l.601562.808594 40 40 40.753906-40.753906c-12.746094-4.605469-26.425781-7.246094-40.753906-7.246094zm0 0"/><path d="m32.0625 296.128906c-15.039062 20.046875-24.0625 44.878906-24.0625 71.871094l48-24zm0 0"/><path d="m26.617188 432c15.496093 24.488281 39.542968 42.96875 68.015624 51.199219l-14.632812-51.199219zm0 0"/><path d="m176 432-15.34375 51.382812c28.777344-8.136718 53.105469-26.6875 68.726562-51.382812zm0 0"/><path d="m208 344 40 24c0-26.984375-9.015625-51.808594-24.046875-71.847656zm0 0"/></g><path d="m112 0v241.113281c-63.039062 7.910157-112 61.734375-112 126.886719 0 70.574219 57.425781 128 128 128h368v-496zm96 80v-64h32v32h128v-32h32v64zm135.191406 16c-3.71875 18.230469-19.871094 32-39.191406 32s-35.472656-13.769531-39.191406-32zm-87.191406-80h96v16h-96zm-128 0h64v80h56.640625c3.902344 27.097656 27.207031 48 55.359375 48s51.457031-20.902344 55.359375-48h56.640625v-80h64v224h-104.472656c-4-35.945312-34.535156-64-71.527344-64s-67.527344 28.054688-71.527344 64h-104.472656zm120.640625 224c3.902344-27.097656 27.207031-48 55.359375-48s51.457031 20.902344 55.359375 48zm110.71875 16c-3.902344 27.089844-27.207031 48-55.359375 48s-51.457031-20.910156-55.359375-48zm-177.328125 184h31.632812c-10.886718 12.9375-24.65625 23.34375-40.296874 30.304688zm42.816406-16h-44.847656l-19.449219-25.9375 6.394531-31.941406 40.101563-13.367188 32.738281 19.644532c-.738281 18.746093-6.058594 36.304687-14.9375 51.601562zm-148.847656 0h-44.847656c-8.816406-15.183594-14.113282-32.585938-14.914063-51.175781l40.121094-20.054688 32.648437 13.054688 6.449219 32.238281zm-59.121094-69.382812c1.839844-15.351563 6.800782-29.722657 14.226563-42.527344l14.167969 28.335937zm87.953125 8.757812 23.167969-17.375 23.167969 17.375-5.726563 28.625h-34.882812zm23.167969-107.375c10.527344 0 20.671875 1.558594 30.335938 4.289062l-29.976563 24.933594-30.535156-24.976562c9.617187-2.695313 19.710937-4.246094 30.175781-4.246094zm89.617188 84.449219 8.6875-26.050781c6.464843 11.808593 10.757812 24.9375 12.605468 38.824218zm-15.945313-2.769531-40.222656 13.410156-25.449219-19.089844v-32.3125l39.574219-32.933594c15.371093 7.246094 28.859375 17.8125 39.441406 30.878906zm-121.191406-70.953126 39.519531 32.335938v32.9375l-25.199219 18.902344-33.007812-13.199219-20.34375-40.6875c10.519531-12.808594 23.878906-23.144531 39.03125-30.289063zm-38.144531 173.273438h31.632812l8.664062 30.304688c-15.648437-6.960938-29.410156-17.367188-40.296874-30.304688zm58.71875 36.585938-12.269532-42.96875 19.214844-25.617188h40l19.214844 25.617188-12.269532 42.96875c-8.648437 2.148437-17.640624 3.414062-26.945312 3.414062s-18.296875-1.265625-26.945312-3.414062zm145.519531-60.585938h153.425781v64h-32v-32h-128v32h-50.167969c25.511719-14.144531 45.671875-36.742188 56.742188-64zm18.234375-16c3.71875-18.230469 19.871094-32 39.191406-32s35.472656 13.769531 39.191406 32zm87.191406 80h-96v-16h96zm64 0v-80h-56.640625c-3.902344-27.089844-27.207031-48-55.359375-48-20.816406 0-38.976562 11.441406-48.625 28.335938.394531-4.0625.625-8.175782.625-12.335938 0-48.160156-26.761719-90.152344-66.167969-112h42.640625c4 35.945312 34.535156 64 71.527344 64s67.535156-28.054688 71.527344-64h104.472656v224zm0 0"/><path d="m296 208h16v16h-16zm0 0"/><path d="m296 272h16v16h-16zm0 0"/></svg>