<svg height="512pt" viewBox="0 0 512.00186 512" width="512pt" xmlns="http://www.w3.org/2000/svg"><path d="m387.121094 4.679688c-19.773438 19.777343-51.839844 19.777343-71.617188 0-.007812-.011719-.019531-.023438-.03125-.03125-1.730468-1.738282-4.523437-1.789063-6.261718-.054688l-304.617188 304.621094c-1.734375 1.734375-1.683594 4.527344.050781 6.261718.011719.011719.023438.019532.035157.03125 19.773437 19.777344 19.773437 51.839844 0 71.617188-1.003907 1-2.035157 1.949219-3.097657 2.84375-1.976562 1.667969-2.128906 4.648438-.300781 6.476562l114.277344 114.277344c1.828125 1.824219 4.808594 1.675782 6.476562-.300781.894532-1.0625 1.84375-2.097656 2.84375-3.097656 19.777344-19.777344 51.839844-19.777344 71.617188 0 .011718.011719.019531.023437.03125.03125 1.734375 1.738281 4.523437 1.789062 6.261718.054687l304.621094-304.621094c1.734375-1.734374 1.683594-4.527343-.054687-6.261718-.011719-.011719-.023438-.019532-.03125-.03125-19.777344-19.777344-19.777344-51.839844 0-71.617188 1-1 2.035156-1.949218 3.097656-2.84375 1.972656-1.667968 2.125-4.648437.300781-6.476562l-114.28125-114.277344c-1.828125-1.824219-4.808594-1.671875-6.472656.300781-.898438 1.0625-1.84375 2.097657-2.847656 3.097657zm0 0" fill="#dce6eb"/><path d="m510.421875 122.035156c1.972656-1.667968 2.125-4.648437.296875-6.472656l-114.277344-114.28125c-1.828125-1.828125-4.808594-1.675781-6.472656.300781-.898438 1.0625-1.84375 2.097657-2.847656 3.097657-5.0625 5.0625-10.933594 8.820312-17.195313 11.292968l99.585938 99.589844c1.828125 1.824219 1.675781 4.804688-.300781 6.472656-1.0625.894532-2.09375 1.84375-3.097657 2.84375-19.773437 19.777344-19.773437 51.839844 0 71.617188l.03125.03125c1.738281 1.738281 1.738281 4.578125.003907 6.3125l-291.589844 291.589844c8.03125 2.28125 15.613281 6.570312 21.9375 12.894531l.03125.03125c1.730468 1.738281 4.523437 1.789062 6.261718.054687l304.617188-304.621094c1.734375-1.734374 1.683594-4.527343-.050781-6.261718-.011719-.007813-.023438-.019532-.03125-.03125-19.777344-19.777344-19.777344-51.839844 0-71.617188 1-1 2.035156-1.949218 3.097656-2.84375zm0 0" fill="#b9c3cd"/><path d="m389.96875 1.582031c-.898438 1.0625-1.84375 2.097657-2.847656 3.097657-19.773438 19.777343-51.839844 19.777343-71.617188 0-.007812-.011719-.019531-.023438-.03125-.03125-1.730468-1.738282-4.523437-1.789063-6.257812-.054688l-149.339844 149.339844 198.195312 198.195312 149.339844-149.339844c1.734375-1.734374 1.683594-4.527343-.054687-6.257812-.011719-.011719-.023438-.023438-.03125-.035156-19.777344-19.773438-19.777344-51.839844 0-71.617188 1-1 2.035156-1.945312 3.097656-2.84375 1.972656-1.664062 2.125-4.644531.300781-6.472656l-114.28125-114.28125c-1.824218-1.824219-4.808594-1.671875-6.472656.300781zm0 0" fill="#40c1fa"/><path d="m510.421875 122.035156c1.972656-1.667968 2.125-4.648437.296875-6.472656l-114.277344-114.28125c-1.828125-1.828125-4.808594-1.675781-6.472656.300781-.898438 1.0625-1.84375 2.097657-2.847656 3.097657-5.0625 5.0625-10.933594 8.820312-17.195313 11.292968l96.371094 96.375c3.457031 3.453125 3.347656 9.015625-.117187 12.46875-.019532.019532-.042969.042969-.0625.0625-19.777344 19.777344-19.777344 51.839844 0 71.617188l.03125.03125c1.734374 1.734375 1.785156 4.527344.050781 6.261718l-128.734375 128.738282 20.605468 20.601562 149.289063-149.292968c1.738281-1.734376 1.734375-4.574219-.003906-6.308594l-.03125-.03125c-19.777344-19.777344-19.777344-51.839844 0-71.617188 1-1 2.035156-1.949218 3.097656-2.84375zm0 0" fill="#0691ce"/><path d="m318.238281 195.136719c-17.851562 17.851562-46.898437 17.851562-64.75 0-17.851562-17.851563-17.851562-46.898438 0-64.75 17.851563-17.851563 46.898438-17.851563 64.75 0 17.851563 17.851562 17.851563 46.898437 0 64.75zm-46.082031-46.082031c-7.558594 7.558593-7.558594 19.855468 0 27.414062s19.855469 7.558594 27.414062 0c7.558594-7.558594 7.558594-19.855469 0-27.414062-7.558593-7.558594-19.855468-7.558594-27.414062 0zm0 0" fill="#ffd508"/><path d="m444.992188 195.136719c-17.851563 17.851562-46.898438 17.851562-64.75 0-17.851563-17.851563-17.851563-46.898438 0-64.75 17.851562-17.851563 46.898437-17.851563 64.75 0 17.851562 17.851562 17.851562 46.898437 0 64.75zm-46.082032-46.082031c-7.558594 7.558593-7.558594 19.855468 0 27.414062s19.855469 7.558594 27.414063 0c7.558593-7.558594 7.558593-19.855469 0-27.414062-7.558594-7.558594-19.855469-7.558594-27.414063 0zm0 0" fill="#ffd508"/><path d="m349.242188 269.207031c-7.292969 0-13.203126-5.910156-13.203126-13.199219v-186.492187c0-7.289063 5.914063-13.199219 13.203126-13.199219 7.289062 0 13.199218 5.910156 13.199218 13.199219v186.492187c0 7.289063-5.910156 13.199219-13.199218 13.199219zm0 0" fill="#ffd508"/><path d="m192.421875 261.105469-113.351563 113.351562c-5.476562 5.476563-14.359374 5.476563-19.835937 0-5.476563-5.476562-5.476563-14.359375 0-19.835937l113.351563-113.351563c5.476562-5.476562 14.359374-5.476562 19.835937 0 5.476563 5.476563 5.476563 14.359375 0 19.835938zm0 0" fill="#40c1fa"/><path d="m231.578125 300.261719-113.351563 113.351562c-5.476562 5.476563-14.359374 5.476563-19.835937 0-5.476563-5.476562-5.476563-14.359375 0-19.835937l113.351563-113.351563c5.476562-5.476562 14.359374-5.476562 19.835937 0 5.476563 5.476563 5.476563 14.359375 0 19.835938zm0 0" fill="#40c1fa"/><path d="m270.734375 339.417969-113.351563 113.351562c-5.476562 5.476563-14.359374 5.476563-19.835937 0-5.476563-5.476562-5.476563-14.359375 0-19.835937l113.351563-113.351563c5.476562-5.476562 14.355468-5.476562 19.835937 0 5.476563 5.476563 5.476563 14.359375 0 19.835938zm0 0" fill="#40c1fa"/><g fill="#ffd508"><path d="m424.21875 445.945312-34.753906-34.75c-6-6-6-15.730468 0-21.730468s15.726562-6 21.726562 0l34.753906 34.753906c6 6 6 15.726562 0 21.726562s-15.726562 6-21.726562 0zm0 0"/><path d="m479.261719 355.53125h-49.144531c-8.488282 0-15.363282-6.878906-15.363282-15.363281s6.875-15.363281 15.363282-15.363281h49.144531c8.488281 0 15.363281 6.878906 15.363281 15.363281s-6.875 15.363281-15.363281 15.363281zm0 0"/><path d="m355.527344 479.265625v-49.148437c0-8.484376-6.875-15.363282-15.363282-15.363282-8.484374 0-15.363281 6.878906-15.363281 15.363282v49.148437c0 8.484375 6.878907 15.363281 15.363281 15.363281 8.488282 0 15.363282-6.878906 15.363282-15.363281zm0 0"/><path d="m66.054688 87.785156 34.753906 34.75c6 6 15.726562 6 21.726562 0s6-15.726562 0-21.726562l-34.753906-34.75c-6-6-15.726562-6-21.726562 0s-6 15.726562 0 21.726562zm0 0"/><path d="m156.472656 32.738281v49.148438c0 8.484375 6.878906 15.363281 15.363282 15.363281 8.484374 0 15.363281-6.878906 15.363281-15.363281v-49.148438c0-8.484375-6.878907-15.363281-15.363281-15.363281-8.484376 0-15.363282 6.878906-15.363282 15.363281zm0 0"/><path d="m32.738281 156.472656h49.148438c8.484375 0 15.363281 6.878906 15.363281 15.363282 0 8.484374-6.878906 15.363281-15.363281 15.363281h-49.148438c-8.484375 0-15.363281-6.878907-15.363281-15.363281 0-8.484376 6.878906-15.363282 15.363281-15.363282zm0 0"/></g></svg>